<svg width="197" height="220" viewBox="0 0 197 220" fill="none" xmlns="http://www.w3.org/2000/svg">
<path d="M32.8503 202.392H47.2023V211.224H32.8503V202.392ZM45.5223 209.688V207.576H34.5303V209.688H45.5223ZM34.5303 206.112H45.5223V203.928H34.5303V206.112ZM30.1623 195.552H39.1863V193.344H40.8663V195.552H49.8903V197.136H42.5223C44.3223 198.888 47.1063 200.28 50.8983 201.288L50.1543 202.848C45.8343 201.384 42.7863 199.488 41.0103 197.136H40.8663V201.624H39.1863V197.136H39.0423C37.1703 199.44 34.1223 201.36 29.9223 202.872L29.0103 201.336C32.8503 200.232 35.7063 198.816 37.5783 197.136H30.1623V195.552ZM29.6823 213.096H50.2983V214.704H29.6823V213.096ZM54.579 194.688H71.811V196.368H63.219V197.976C63.171 199.464 63.075 200.88 62.907 202.176H73.755V203.832H66.315V212.208C66.315 212.976 66.699 213.384 67.467 213.384H70.515C71.091 213.384 71.523 213.216 71.787 212.904C72.123 212.52 72.339 211.416 72.459 209.544L74.091 210.072C73.899 212.424 73.539 213.84 73.011 214.368C72.555 214.8 71.835 215.016 70.827 215.016H66.939C65.355 215.016 64.587 214.2 64.587 212.568V203.832H62.643C62.259 205.92 61.659 207.72 60.843 209.256C59.355 211.848 56.955 213.888 53.619 215.328L52.659 213.792C55.971 212.304 58.251 210.36 59.547 207.912C60.123 206.712 60.555 205.344 60.867 203.832H52.971V202.176H61.155C61.347 200.88 61.443 199.464 61.467 197.976V196.368H54.579V194.688ZM84.2757 196.392H79.1877V212.832H97.3077V214.512H77.4597V194.712H96.8277V196.392H91.1157V206.16C91.1157 206.784 91.4517 207.12 92.1237 207.12H94.1637C94.5957 207.12 94.9077 206.952 95.0997 206.64C95.3397 206.256 95.5077 205.152 95.6037 203.304L97.2357 203.832C97.0917 206.136 96.7797 207.552 96.3237 208.056C95.9397 208.488 95.3157 208.704 94.4517 208.704H91.5957C90.1557 208.704 89.4597 207.96 89.4597 206.496V196.392H85.9557C85.7397 202.8 84.1797 207.216 81.2757 209.664L79.8837 208.536C82.6437 206.4 84.1077 202.344 84.2757 196.392ZM121.1 208.968C120.932 211.464 120.668 213.072 120.284 213.816C119.9 214.536 119.156 214.92 118.004 214.92H113.252C112.1 214.92 111.524 214.152 111.524 212.64V202.464H118.076V196.056H111.116V194.424H119.756V204.144H113.204V212.016C113.204 212.832 113.444 213.264 113.948 213.288H117.716C118.388 213.288 118.82 212.952 119.012 212.28C119.204 211.632 119.324 210.336 119.396 208.416L121.1 208.968ZM99.4043 194.4H110.324V196.032H107.204V198.816H109.94V215.304H108.404V214.008H101.564V215.304H100.028V198.816H102.644V196.032H99.4043V194.4ZM101.564 212.376H108.404V210.048H101.564V212.376ZM102.98 200.4H101.564V208.464H108.404V206.376H107.18C106.172 206.376 105.668 205.824 105.668 204.72V200.4H104.156V201.96C104.108 204.528 103.58 206.4 102.572 207.6L101.66 206.76C102.524 205.752 102.956 204.168 102.98 201.96V200.4ZM104.132 198.816H105.716V196.032H104.132V198.816ZM108.404 205.032V200.4H106.868V204.408C106.868 204.816 107.06 205.032 107.468 205.032H108.404ZM133.541 203.232C132.557 205.968 130.685 208.224 127.901 210.048L126.749 208.632C129.437 206.856 131.213 204.648 132.077 201.984C132.341 201.048 132.557 200.04 132.725 198.936H125.885V215.376H124.133V197.256H132.917C133.037 196.032 133.109 194.712 133.109 193.32H134.861C134.861 194.736 134.789 196.056 134.693 197.256H143.117V212.712C143.117 214.32 142.325 215.136 140.789 215.136H137.021L136.541 213.408L140.213 213.504C140.981 213.504 141.365 213.096 141.365 212.328V198.936H134.501C134.381 199.848 134.237 200.712 134.045 201.504C136.541 203.856 138.629 206.184 140.333 208.464L139.037 209.784C137.645 207.72 135.797 205.536 133.541 203.232ZM157.31 193.272C157.598 193.896 157.862 194.616 158.126 195.408H166.838V199.68H165.158V197.016H148.886V199.8H147.206V195.408H156.326C156.038 194.736 155.75 194.136 155.462 193.584L157.31 193.272ZM156.398 200.952H157.718C159.662 203.376 163.022 205.488 167.774 207.312L166.838 208.728C165.878 208.344 164.99 207.96 164.174 207.576V215.424H162.518V214.416H151.79V215.424H150.11V207.48C149.126 207.96 148.142 208.368 147.134 208.752L146.222 207.336C150.614 205.704 153.998 203.592 156.398 200.952ZM151.79 212.832H162.518V208.992H151.79V212.832ZM150.158 207.456H163.91C160.982 206.016 158.678 204.336 157.046 202.464C155.126 204.48 152.822 206.136 150.158 207.456ZM159.83 198.024C162.71 199.512 165.158 201 167.126 202.488L165.926 203.664C164.174 202.224 161.774 200.712 158.726 199.104L159.83 198.024ZM154.142 198L155.294 199.032C153.254 200.808 150.758 202.368 147.782 203.712L146.75 202.368C149.678 201.12 152.126 199.68 154.142 198Z" fill="#FAD689" fill-opacity="0.6"/>
<circle cx="98" cy="75" r="70" stroke="#FAD689" stroke-opacity="0.6" stroke-width="10"/>
<path d="M98.592 39.112C104.736 39.112 109.728 40.744 113.376 44.2C116.928 47.464 118.752 51.976 118.752 57.736C118.752 62.056 117.504 65.8 115.2 68.968C114.24 70.12 111.552 72.616 107.328 76.36C105.312 78.088 103.872 79.816 102.912 81.544C101.664 83.656 101.088 86.056 101.088 88.648V90.856H93.312V88.648C93.312 85.48 93.888 82.696 95.136 80.296C96.384 77.416 99.648 73.768 104.832 69.16C106.368 67.624 107.424 66.472 108.096 65.704C109.92 63.304 110.88 60.808 110.88 58.12C110.88 54.28 109.824 51.304 107.712 49.192C105.408 46.888 102.24 45.832 98.208 45.832C93.504 45.832 89.952 47.368 87.552 50.536C85.536 53.224 84.48 56.872 84.48 61.576H76.8C76.8 54.856 78.72 49.48 82.464 45.448C86.4 41.224 91.776 39.112 98.592 39.112ZM97.248 97.576C98.88 97.576 100.224 98.056 101.376 99.208C102.432 100.264 103.008 101.608 103.008 103.24C103.008 104.968 102.432 106.312 101.376 107.368C100.224 108.424 98.784 109 97.248 109C95.52 109 94.176 108.424 93.12 107.368C91.968 106.216 91.392 104.872 91.392 103.24C91.392 101.608 91.968 100.264 93.12 99.208C94.176 98.056 95.52 97.576 97.248 97.576Z" fill="#FAD689" fill-opacity="0.6"/>
</svg>
